<svg height="480pt" viewBox="0 0 480 480" width="480pt" xmlns="http://www.w3.org/2000/svg"><g fill="#c6c5ca"><path d="m200 24h16v96h-16zm0 0"/><path d="m184 120h-16v-28.6875l-29.65625-29.65625c-1.503906-1.496094-2.34375-3.535156-2.34375-5.65625v-32h16v28.6875l29.65625 29.65625c1.503906 1.496094 2.34375 3.535156 2.34375 5.65625zm0 0"/><path d="m264 56h16v64h-16zm0 0"/><path d="m274.816406 103.496094-5.625-14.984375 58.808594-22.054688v-42.457031h16v48c0 3.335938-2.070312 6.320312-5.183594 7.496094zm0 0"/><path d="m360 200h96v16h-96zm0 0"/><path d="m392 184h-32v-16h28.6875l29.65625-29.65625c1.496094-1.503906 3.527344-2.34375 5.65625-2.34375h32v16h-28.6875l-29.65625 29.65625c-1.496094 1.503906-3.527344 2.34375-5.65625 2.34375zm0 0"/><path d="m360 264h72v16h-72zm0 0"/><path d="m456 344h-48c-3.335938 0-6.320312-2.070312-7.496094-5.183594l-24-64 14.984375-5.625 22.054688 58.808594h42.457031zm0 0"/><path d="m264 360h16v104h-16zm0 0"/><path d="m344 456h-16v-28.6875l-29.65625-29.65625c-1.503906-1.496094-2.34375-3.527344-2.34375-5.65625v-32h16v28.6875l29.65625 29.65625c1.503906 1.496094 2.34375 3.527344 2.34375 5.65625zm0 0"/><path d="m200 360h16v64h-16zm0 0"/><path d="m152 456h-16v-48c0-3.335938 2.070312-6.320312 5.183594-7.496094l64-24 5.625 14.984375-58.808594 22.054688zm0 0"/><path d="m24 264h96v16h-96zm0 0"/><path d="m56 344h-32v-16h28.6875l29.65625-29.65625c1.496094-1.503906 3.527344-2.34375 5.65625-2.34375h32v16h-28.6875l-29.65625 29.65625c-1.496094 1.503906-3.527344 2.34375-5.65625 2.34375zm0 0"/><path d="m88.503906 210.808594-22.046875-58.808594h-42.457031v-16h48c3.335938 0 6.320312 2.070312 7.496094 5.191406l24 64zm0 0"/><path d="m56 200h64v16h-64zm0 0"/></g><path d="m320 120h-160l-40 40v160l40 40h160l40-40v-160zm0 0" fill="#78767f"/><path d="m328 304v-128l-24-24h-128l-24 24v128l24 24h128zm0 0" fill="#c6c5ca"/><path d="m352 464c0 8.835938-7.164062 16-16 16s-16-7.164062-16-16 7.164062-16 16-16 16 7.164062 16 16zm0 0" fill="#ec5166"/><path d="m288 464c0 8.835938-7.164062 16-16 16s-16-7.164062-16-16 7.164062-16 16-16 16 7.164062 16 16zm0 0" fill="#ec5166"/><path d="m224 432c0 8.835938-7.164062 16-16 16s-16-7.164062-16-16 7.164062-16 16-16 16 7.164062 16 16zm0 0" fill="#ec5166"/><path d="m160 464c0 8.835938-7.164062 16-16 16s-16-7.164062-16-16 7.164062-16 16-16 16 7.164062 16 16zm0 0" fill="#ec5166"/><path d="m32 336c0 8.835938-7.164062 16-16 16s-16-7.164062-16-16 7.164062-16 16-16 16 7.164062 16 16zm0 0" fill="#67a4f8"/><path d="m32 272c0 8.835938-7.164062 16-16 16s-16-7.164062-16-16 7.164062-16 16-16 16 7.164062 16 16zm0 0" fill="#67a4f8"/><path d="m64 208c0 8.835938-7.164062 16-16 16s-16-7.164062-16-16 7.164062-16 16-16 16 7.164062 16 16zm0 0" fill="#67a4f8"/><path d="m32 144c0 8.835938-7.164062 16-16 16s-16-7.164062-16-16 7.164062-16 16-16 16 7.164062 16 16zm0 0" fill="#67a4f8"/><path d="m480 144c0 8.835938-7.164062 16-16 16s-16-7.164062-16-16 7.164062-16 16-16 16 7.164062 16 16zm0 0" fill="#7cc083"/><path d="m480 208c0 8.835938-7.164062 16-16 16s-16-7.164062-16-16 7.164062-16 16-16 16 7.164062 16 16zm0 0" fill="#7cc083"/><path d="m448 272c0 8.835938-7.164062 16-16 16s-16-7.164062-16-16 7.164062-16 16-16 16 7.164062 16 16zm0 0" fill="#7cc083"/><path d="m480 336c0 8.835938-7.164062 16-16 16s-16-7.164062-16-16 7.164062-16 16-16 16 7.164062 16 16zm0 0" fill="#7cc083"/><path d="m160 16c0 8.835938-7.164062 16-16 16s-16-7.164062-16-16 7.164062-16 16-16 16 7.164062 16 16zm0 0" fill="#f5b866"/><path d="m224 16c0 8.835938-7.164062 16-16 16s-16-7.164062-16-16 7.164062-16 16-16 16 7.164062 16 16zm0 0" fill="#f5b866"/><path d="m288 48c0 8.835938-7.164062 16-16 16s-16-7.164062-16-16 7.164062-16 16-16 16 7.164062 16 16zm0 0" fill="#f5b866"/><path d="m352 16c0 8.835938-7.164062 16-16 16s-16-7.164062-16-16 7.164062-16 16-16 16 7.164062 16 16zm0 0" fill="#f5b866"/><path d="m328 208h-56c-2.128906 0-4.160156-.839844-5.65625-2.34375l-13.65625-13.65625h-60.6875v-16h64c2.128906 0 4.160156.839844 5.65625 2.34375l13.65625 13.65625h52.6875zm0 0" fill="#78767f"/><path d="m288 304h-64c-2.128906 0-4.160156-.839844-5.65625-2.34375l-13.65625-13.65625h-52.6875v-16h56c2.128906 0 4.160156.839844 5.65625 2.34375l13.65625 13.65625h60.6875zm0 0" fill="#78767f"/></svg>