<?xml version="1.0" encoding="UTF-8" standalone="no"?>
<!-- Created with Inkscape (http://www.inkscape.org/) -->

<svg
   version="1.1"
   id="svg69"
   width="512"
   height="512"
   viewBox="0 0 512 512"
   xmlns="http://www.w3.org/2000/svg"
   xmlns:svg="http://www.w3.org/2000/svg">
  <defs
     id="defs73" />
  <g
     id="g75">
    <path
       style="fill:#46cc6b;fill-opacity:1;stroke-width:1.20188"
       d="M 68.918831,262.62868 V 149.65215 l 100.657279,8.1e-4 c 55.3615,4.5e-4 144.96332,0.36066 199.11516,0.80048 l 98.45789,0.79967 3.70174,3.30737 3.70173,3.30737 v 104.76053 104.76053 l -3.70427,3.30993 -3.70427,3.30993 -24.53986,0.79506 c -13.49692,0.43729 -103.09761,0.79648 -199.11263,0.79821 l -174.572769,0.003 z m 29.537182,86.66127 c 12.357797,-5.61267 11.409107,-23.18812 -1.49435,-27.68453 -4.29353,-1.49615 -5.52809,-1.49063 -9.55673,0.0427 -12.570237,4.78427 -13.334987,21.46133 -1.258269,27.43926 6.046749,2.99311 6.161179,2.995 12.309349,0.2026 z m 346.478167,-1.96822 c 9.18686,-7.73023 7.06437,-21.02542 -4.03319,-25.26361 -4.23226,-1.61631 -5.9889,-1.73447 -9.34079,-0.62824 -8.32988,2.74911 -12.76114,11.08661 -10.13145,19.06252 3.06925,9.3091 16.06953,13.08624 23.50543,6.82933 z m -108.26627,-1.88378 c 8.63638,-2.04008 26.53399,-11.1093 33.75337,-17.10376 9.23076,-7.66455 16.40248,-16.80622 21.84573,-27.84636 6.74005,-13.67034 8.43586,-21.45953 8.43639,-38.74978 3.7e-4,-12.63804 -0.43911,-16.02693 -3.11724,-24.03756 -4.91113,-14.6898 -10.65789,-23.858 -22.07965,-35.22513 -16.95745,-16.87635 -35.05193,-24.388 -59.00083,-24.49331 -14.45639,-0.0636 -22.19319,1.55414 -34.66249,7.2477 -22.80112,10.41113 -37.94297,26.88226 -45.93769,49.9705 -6.25123,18.05313 -5.73779,40.32245 1.35262,58.66728 10.14269,26.24195 33.27997,45.85875 61.82033,52.414 8.05058,1.84909 28.09476,1.39927 37.58946,-0.84358 z m -178.13842,-8.79676 c 2.26466,-1.65583 2.333,-3.82385 2.333,-74.01222 0,-70.18828 -0.0683,-72.35642 -2.333,-74.01252 -3.0209,-2.20913 -3.36135,-2.1716 -7.11994,0.78491 l -3.16678,2.49098 v 70.82357 c 0,69.22107 0.0544,70.87795 2.40376,73.22732 2.84456,2.84457 4.71997,3.01061 7.88296,0.69796 z m 20.31385,0.30679 3.07048,-1.399 -0.3097,-72.77102 -0.3097,-72.77101 -3.27979,-1.84075 c -3.03897,-1.7056 -3.45245,-1.66485 -5.63138,0.55499 -2.22654,2.26835 -2.36196,4.44093 -2.5466,40.85584 -0.43911,86.59811 -0.10989,104.84281 1.92859,106.88129 2.25898,2.25898 3.0715,2.31519 7.0781,0.48966 z m -39.33225,-22.63855 c 1.1934,-2.32983 1.46951,-14.23389 1.22928,-52.99985 -0.33021,-53.28765 -0.41052,-53.99031 -6.16589,-53.94888 -6.3408,0.0456 -6.13695,-1.64881 -6.50027,54.03125 -0.23399,35.85929 0.0671,52.49114 0.98126,54.19922 1.90452,3.55864 8.38304,2.76445 10.45562,-1.28174 z m 62.49282,0.30047 c 0.50837,-1.81784 0.92431,-25.80228 0.92431,-53.29875 0,-40.60691 -0.30971,-50.36677 -1.64951,-51.98122 -2.29778,-2.76879 -8.17279,-2.56517 -9.72605,0.33711 -1.88451,3.52123 -1.69646,104.91121 0.19809,106.80577 0.79324,0.79324 3.21675,1.44225 5.38556,1.44225 3.27645,0 4.0996,-0.55893 4.8676,-3.30516 z M 98.929703,203.40096 c 4.563067,-2.30894 8.449217,-8.93486 8.449217,-14.40597 0,-3.93977 -0.8131,-5.58427 -4.66611,-9.43729 -3.943617,-3.94362 -5.450207,-4.66611 -9.730047,-4.66611 -15.778069,0 -21.475488,19.52457 -8.080699,27.69185 4.403989,2.68527 9.723779,2.9953 14.027639,0.81752 z m 346.072857,-1.78664 c 1.70982,-1.26411 3.8461,-4.5806 4.74729,-7.36999 1.3909,-4.30514 1.38444,-5.73918 -0.0427,-9.48884 -3.34052,-8.77691 -14.18147,-12.44064 -22.25154,-7.51997 -4.76004,2.90241 -6.71435,6.43693 -6.71435,12.14341 0,12.44403 14.25519,19.63317 24.26129,12.23539 z"
       id="path11261" />
    <path
       style="fill:#fcb73e;fill-opacity:1;stroke-width:0.300469"
       d="m 136.97517,401.84934 v -17.12676 h -5.55869 -5.55868 v 17.01767 17.01767 l -5.93428,-0.16714 c -6.03178,-0.16989 -10.13383,-0.70953 -11.7512,-1.5459 -3.37775,-1.7467 -4.22259,-7.9323 -4.24025,-31.04531 l -0.009,-11.19249 h 82.48639 82.4864 l -0.0603,9.84038 c -0.0878,14.317 -0.41945,23.28073 -0.96162,25.98895 -0.7839,3.91575 -2.12654,6.11916 -4.27594,7.01724 -1.07894,0.4508 -8.63503,1.01921 -13.5716,1.02091 l -3.07981,0.001 v -16.97653 -16.97652 h -5.55869 -5.55868 v 17.12676 17.12676 l -5.48357,5e-5 -5.48357,6e-5 0.08,-17.12682 0.08,-17.12681 h -5.56355 -5.56355 v 17.12676 17.12676 l -5.48356,5e-5 -5.48357,6e-5 0.08,-17.12682 0.08,-17.12681 h -5.71865 -5.71864 l 0.08,17.12681 0.08,17.12682 -5.48357,-6e-5 -5.48357,-5e-5 v -17.12676 -17.12676 h -5.55868 -5.55869 v 17.12676 17.12676 h -5.40845 -5.40845 v -17.12676 -17.12676 h -5.55869 -5.55868 v 17.12676 17.12676 h -5.40845 -5.40845 z"
       id="path11300" />
    <path
       style="fill:#fd982e;fill-opacity:1;stroke-width:0.600939"
       d="m 126.3085,401.84934 v -16.8263 h 5.10798 5.10798 v 16.8263 16.82629 h -5.10798 -5.10798 z"
       id="path18903" />
    <path
       style="fill:#fd982e;fill-opacity:1;stroke-width:0.600939"
       d="m 147.9423,401.84934 v -16.8263 h 5.40845 5.40845 v 16.8263 16.82629 h -5.40845 -5.40845 z"
       id="path26428" />
    <path
       style="fill:#fd982e;fill-opacity:1;stroke-width:0.600939"
       d="m 170.17704,401.84934 v -16.8263 h 5.10799 5.10798 v 16.8263 16.82629 h -5.10798 -5.10799 z"
       id="path26467" />
    <path
       style="fill:#fd982e;fill-opacity:1;stroke-width:0.600939"
       d="m 191.81085,401.84934 v -16.8263 h 5.40845 5.40845 v 16.8263 16.82629 h -5.40845 -5.40845 z"
       id="path26506" />
    <path
       style="fill:#fd982e;fill-opacity:1;stroke-width:0.600939"
       d="m 214.04559,401.84934 v -16.8263 h 5.40845 5.40845 v 16.8263 16.82629 h -5.40845 -5.40845 z"
       id="path26545" />
    <path
       style="fill:#fd982e;fill-opacity:1;stroke-width:0.600939"
       d="m 236.28033,401.84934 v -16.8263 h 5.10798 5.10798 v 16.8263 16.82629 h -5.10798 -5.10798 z"
       id="path26584" />
    <path
       style="fill:#fcb73e;fill-opacity:1;stroke-width:0.849856"
       d="m 23.609938,285.51476 v -50.56643 h 9.773345 9.773344 v 50.56643 50.56644 h -9.773344 -9.773345 z"
       id="path26623" />
    <path
       style="fill:#fcb73e;fill-opacity:1;stroke-width:0.849856"
       d="m 23.609938,204.77844 v -14.87248 h 9.773345 9.773344 v 14.87248 14.87248 h -9.773344 -9.773345 z"
       id="path29156" />
    <path
       style="fill:#deddff;fill-opacity:1;stroke-width:0.849856"
       d="m 330.54871,325.23773 c -0.8221,-0.57348 -1.02685,-4.27283 -0.84986,-15.35458 l 0.23318,-14.59907 7.98954,7.33036 c 8.57448,7.86705 12.46074,10.07848 19.30214,10.98368 6.7317,0.89068 18.43866,-3.30479 19.66785,-7.04844 0.19165,-0.58374 -6.18465,-7.68964 -14.16958,-15.79088 -7.98492,-8.10125 -14.51805,-14.98553 -14.51805,-15.2984 0,-0.31286 5.06727,-0.57097 11.2606,-0.57358 12.93,-0.005 16.20356,-0.70039 21.15497,-4.49102 4.10451,-3.14228 8.78636,-11.16816 9.64746,-16.53818 l 0.57918,-3.61188 H 369.4964 348.14665 l 7.67363,-8.64749 c 4.2205,-4.75612 8.44017,-10.23096 9.37706,-12.16631 2.09842,-4.33476 2.29883,-13.67981 0.41211,-19.21702 -1.19585,-3.50964 -4.79157,-8.41098 -6.17046,-8.41098 -0.32678,0 -7.13465,6.53251 -15.12862,14.51668 l -14.53448,14.51668 -0.55394,-10.94488 c -0.69707,-13.77284 -2.05661,-18.53057 -6.59092,-23.06487 -3.90647,-3.90647 -10.7173,-7.43901 -15.95847,-8.27711 l -3.511,-0.56143 v 21.45161 21.4516 l -7.70387,-7.33124 c -8.61824,-8.20137 -12.15321,-10.34034 -18.77188,-11.35865 -5.72635,-0.88102 -10.86275,-10e-4 -15.66513,2.6827 -2.06324,1.15317 -3.75134,1.68137 -3.75134,1.17379 0,-2.10188 8.82509,-18.69994 11.21147,-21.08632 3.34363,-3.34363 17.91616,-10.40527 26.60712,-12.89343 5.88823,-1.68575 8.73392,-1.94646 21.2464,-1.94646 17.28563,0 22.76695,1.24796 37.39367,8.51356 16.95048,8.41989 28.26788,19.8699 36.94579,37.37867 2.78002,5.60905 5.65015,12.49288 6.37805,15.29741 3.07826,11.86019 2.43306,36.01973 -1.24766,46.71791 -2.20745,6.41607 -7.21166,16.57729 -10.18047,20.6718 -3.22869,4.4529 -17.01441,11.51984 -27.83354,14.26822 -8.73973,2.22016 -25.32477,3.59459 -27.24146,2.25755 z"
       id="path35117" />
    <path
       style="fill:#c6c6f7;fill-opacity:1;stroke-width:0.849856"
       d="m 302.57941,345.485 c -7.48261,-1.19907 -16.5016,-4.29055 -24.42638,-8.37272 -43.35501,-22.33285 -58.46035,-76.63261 -33.00762,-118.65376 2.79865,-4.62042 17.49255,-20.90386 18.86329,-20.90386 0.29731,0 -1.19433,3.53753 -3.31477,7.86117 -6.38276,13.01468 -9.83263,30.1821 -8.62125,42.9015 l 0.58526,6.14523 -2.93182,2.76537 c -3.23629,3.05255 -6.46036,9.5522 -7.18097,14.47667 l -0.46636,3.18696 8.65759,0.0219 8.6576,0.0219 1.4722,3.16504 c 0.80972,1.74077 3.12563,5.66889 5.14647,8.72917 l 3.67426,5.56413 -2.02182,3.78428 c -2.80656,5.25307 -2.49638,15.4425 0.65649,21.56602 3.61382,7.01877 4.089,6.97751 12.16487,-1.05642 5.70059,-5.67097 7.27501,-6.82494 8.04531,-5.89679 0.52674,0.63468 4.38532,2.9612 8.57463,5.17004 6.85172,3.61262 7.87738,4.47759 10.20968,8.6102 3.04734,5.39959 7.9394,9.0787 14.67578,11.03702 6.38012,1.85475 7.51525,1.28669 7.51525,-3.76088 0,-3.85849 0.12691,-4.07751 2.6558,-4.58328 1.46069,-0.29214 4.807,-0.53386 7.43624,-0.53717 9.40371,-0.0118 19.85128,-2.17187 28.61524,-5.91625 4.62666,-1.97673 9.17717,-4.12992 10.11226,-4.78489 3.16541,-2.21713 3.11964,-1.20701 -0.12298,2.71496 -8.52553,10.31164 -26.34792,21.26797 -40.62293,24.97298 -7.62259,1.9784 -27.4483,2.98179 -35.00132,1.77143 z"
       id="path42876" />
    <path
       style="fill:#deddff;fill-opacity:1;stroke-width:0.849856"
       d="m 309.86274,281.36779 c -8.39357,-2.99953 -12.72081,-9.14145 -12.74911,-18.09558 -0.0218,-6.90611 0.75213,-9.22582 4.50376,-13.49874 5.38427,-6.13242 14.6786,-8.19841 22.60846,-5.02551 6.77377,2.71033 12.099,11.01875 12.0718,18.83441 -0.0115,3.30524 -3.49691,10.34696 -6.72065,13.57802 -4.7415,4.75227 -13.16122,6.5492 -19.71426,4.2074 z"
       id="path48061" />
    <path
       style="fill:#deddff;fill-opacity:1;stroke-width:0.424928"
       d="m 295.59095,313.94608 -7.51285,-4.28815 6.16459,-6.47779 c 6.27911,-6.59813 7.94571,-7.97285 8.72312,-7.19544 0.57393,0.57393 1.11325,22.24952 0.55359,22.24952 -0.22858,0 -3.79639,-1.92967 -7.92845,-4.28814 z"
       id="path54962" />
    <path
       style="fill:#deddff;fill-opacity:1;stroke-width:0.424928"
       d="m 267.77515,287.74563 c -1.16127,-1.81125 -3.18476,-5.19928 -4.49665,-7.52894 -2.14709,-3.81284 -2.3116,-4.27747 -1.64763,-4.6535 0.41027,-0.23235 5.90862,-0.49778 12.38976,-0.59811 l 11.65216,-0.18037 -0.91331,1.16108 c -1.09424,1.39109 -14.43159,15.09304 -14.69144,15.09304 -0.0998,0 -1.13162,-1.48194 -2.29289,-3.2932 z"
       id="path55001" />
    <path
       style="fill:#deddff;fill-opacity:1;stroke-width:0.424928"
       d="m 253.61345,251.86324 c -0.68524,-1.28039 -0.21614,-18.6509 0.66327,-24.56015 0.78935,-5.30408 0.97142,-5.95246 1.67154,-5.95246 0.2936,0 7.10142,6.4536 15.1285,14.34132 l 14.59467,14.34132 -2.0906,0.28147 c -1.14983,0.15481 -5.85331,0.29822 -10.45218,0.3187 -8.76879,0.039 -13.81115,0.51854 -16.27393,1.54755 -2.00571,0.83804 -2.65687,0.77421 -3.24127,-0.31775 z"
       id="path55040" />
    <path
       style="fill:#5b5e8b;fill-opacity:1;stroke-width:0.849856"
       d="M 42.856339,267.66779 V 133.81546 H 30.108499 17.360658 v -6.37392 -6.37392 H 36.482419 55.60418 v 140.22624 140.22625 h -6.37392 -6.373921 z"
       id="path55196" />
    <path
       style="fill:#179c5f;fill-opacity:1;stroke-width:0.849856"
       d="M 55.303892,262.56865 V 149.96272 h 7.648704 7.648705 v 112.60593 112.60592 h -7.648705 -7.648704 z"
       id="path59835" />
    <path
       style="fill:#312e4b;fill-opacity:1;stroke-width:0.849856"
       d="m 322.50772,334.38513 c -5.74643,-1.73028 -13.26822,-8.50161 -15.57404,-14.0202 -0.70955,-1.6982 -1.39009,-8.11924 -1.74814,-16.4941 l -0.58628,-13.71338 -15.51371,15.31317 c -8.53255,8.42225 -15.95224,15.31317 -16.48821,15.31317 -0.53596,0 -1.94878,-2.12815 -3.1396,-4.72923 -1.85669,-4.05556 -2.12238,-5.66994 -1.86515,-11.33326 0.35949,-7.915 1.4563,-9.77311 12.91731,-21.88325 4.16759,-4.40363 7.31882,-8.26521 7.00273,-8.5813 -0.31608,-0.31608 -10.1184,-0.73143 -21.78291,-0.923 l -21.20822,-0.3483 v -1.91765 c 0,-5.52521 6.44272,-14.04049 12.74784,-16.8487 3.10863,-1.38454 6.25371,-1.77809 16.8052,-2.10287 7.13946,-0.21976 13.19694,-0.74922 13.46107,-1.17658 0.26412,-0.42737 -6.46129,-7.78324 -14.94536,-16.34638 l -15.42559,-15.56935 4.08915,-2.42294 c 3.23519,-1.91694 5.37855,-2.49219 10.26329,-2.75453 8.37335,-0.44969 12.50964,1.71517 23.99576,12.55896 l 8.92349,8.42446 0.22637,-22.47466 0.22637,-22.47466 2.3232,0.51788 c 8.30282,1.85083 17.17655,9.27152 18.94632,15.84394 0.49628,1.84306 1.1659,9.07002 1.48802,16.05989 l 0.58569,12.70887 10.24552,-10.01721 c 15.55781,-15.21113 20.55596,-19.79055 21.60009,-19.79055 2.01224,0 5.10619,8.70549 5.11482,14.39169 0.0115,7.53163 -1.78937,10.80666 -11.91673,21.67232 -4.66987,5.01031 -8.27258,9.46255 -8.00601,9.89386 0.2751,0.44512 9.64981,0.78421 21.68092,0.78421 h 21.19624 l -0.0187,2.3371 c -0.0277,3.46721 -2.7761,8.89956 -6.27053,12.39399 -5.69103,5.69104 -6.7107,5.94085 -27.98419,6.85595 -4.59403,0.19761 -8.59174,0.59825 -8.88379,0.89031 -0.29206,0.29205 6.43057,7.50022 14.93917,16.01814 8.50862,8.51793 15.4702,15.70766 15.4702,15.97718 0,0.26952 -2.05527,1.5299 -4.56727,2.80086 -3.77056,1.90773 -5.6875,2.31082 -10.98943,2.31082 -8.55217,0 -10.95622,-1.32791 -22.59508,-12.48072 l -9.44016,-9.04593 v 16.11195 c 0,19.01317 -0.71068,29.14651 -2.03688,29.0432 -0.51569,-0.0402 -1.98394,-0.38811 -3.26279,-0.77317 z m -0.67996,-51.06783 c 6.00734,-1.28834 12.94652,-7.6341 14.95262,-13.67391 4.70226,-14.1572 -5.43901,-27.82425 -20.68581,-27.87755 -8.70401,-0.0304 -14.07404,3.12921 -18.74535,11.02946 -2.98371,5.04613 -3.17313,13.9005 -0.40931,19.1329 5.27102,9.97898 13.62893,13.80371 24.88785,11.3891 z"
       id="path67204" />
    <path
       style="fill:#deddff;fill-opacity:1;stroke-width:0.106232"
       d="m 308.50581,347.26459 c -6.90581,-0.31281 -10.59781,-1.02398 -17.85504,-3.43934 -26.70624,-8.8884 -47.23407,-29.47312 -55.17838,-55.33129 -3.33664,-10.86053 -4.56103,-23.15509 -3.45626,-34.7057 0.7326,-7.65964 2.38175,-14.66838 5.12421,-21.77756 l 0.51226,-1.3279 0.6586,-0.0316 0.6586,-0.0316 -0.22727,0.5628 c -0.58691,1.45341 -1.82807,4.98992 -2.32262,6.61802 -3.48808,11.48289 -4.51799,23.21477 -3.07286,35.00345 2.56672,20.93811 12.79626,40.00844 28.78042,53.65361 4.19534,3.58143 9.51398,7.20503 14.63429,9.97038 7.81043,4.21821 17.49814,7.68273 25.09648,8.97503 2.13181,0.36257 3.60503,0.48483 7.11755,0.59068 8.96991,0.27028 22.10224,-0.70266 27.89906,-2.06698 7.59347,-1.78716 17.55307,-6.37378 25.96719,-11.95847 6.9478,-4.61146 12.21396,-9.20135 15.97485,-13.92341 2.62935,-3.30133 2.45283,-4.09085 -0.47165,-2.10966 -1.65409,1.12057 -9.60179,4.72436 -13.70059,6.21239 -7.77759,2.82357 -16.98941,4.51159 -24.64912,4.51683 -2.84591,0.002 -6.2224,0.2524 -8.02051,0.59493 -1.27737,0.24332 -1.89703,0.57722 -2.18844,1.17919 -0.2171,0.44846 -0.24511,0.71246 -0.31801,2.99689 -0.0978,3.06569 -0.23127,3.742 -0.87885,4.45393 -0.45216,0.49711 -0.78946,0.59964 -1.92631,0.58556 -1.17855,-0.0146 -1.93487,-0.15752 -4.17361,-0.78874 -6.03609,-1.7019 -10.4232,-4.54999 -13.64377,-8.85748 -0.34713,-0.46428 -1.10458,-1.64339 -1.68321,-2.62025 -2.31252,-3.904 -3.18395,-4.62405 -10.07839,-8.32754 -4.42492,-2.37694 -7.23175,-4.0503 -8.33165,-4.96711 -0.40058,-0.33391 -0.59939,-0.42782 -0.88311,-0.41715 -0.92812,0.0349 -2.28342,1.15167 -7.04537,5.80546 -5.15529,5.0382 -6.5027,6.14811 -7.82208,6.44338 -0.47692,0.10673 -0.63175,0.0992 -1.02191,-0.0498 -0.96741,-0.36946 -2.00569,-1.80112 -3.51682,-4.84928 -1.60097,-3.22939 -2.42183,-6.53411 -2.59912,-10.46385 -0.1794,-3.97635 0.28579,-7.52057 1.31274,-10.00172 0.19709,-0.47617 0.83861,-1.75797 1.42559,-2.84844 0.58698,-1.09048 1.06724,-2.05209 1.06724,-2.13692 0,-0.0848 -0.7567,-1.28886 -1.68155,-2.67562 -4.11082,-6.1639 -6.09626,-9.50974 -7.7112,-12.99479 l -0.81666,-1.76237 -3.1987,-0.0701 c -1.75928,-0.0386 -5.65283,-0.0701 -8.65233,-0.0701 -2.99951,0 -5.45364,-0.0359 -5.45363,-0.0797 1.1e-4,-0.44917 0.60674,-3.98861 0.8603,-5.01946 0.84783,-3.44685 2.91514,-7.74943 5.10128,-10.61701 0.29212,-0.38319 1.44388,-1.58538 2.55947,-2.67154 l 2.02835,-1.97485 -0.35281,-3.60233 c -0.66712,-6.81147 -0.54505,-12.76791 0.39005,-19.03254 l 0.17839,-1.19511 h 0.46024 c 0.29755,0 0.46011,0.0469 0.45989,0.13279 -2.1e-4,0.073 -0.0702,1.18449 -0.15555,2.4699 -0.36172,5.44684 -0.54223,12.96921 -0.38606,16.08742 0.0966,1.92838 0.13591,2.2238 0.3519,2.64326 0.50303,0.97689 1.12313,1.04809 3.0051,0.34505 3.15422,-1.17833 6.73637,-1.51114 17.79396,-1.65319 5.43917,-0.0699 8.50552,-0.19773 10.09652,-0.421 0.59467,-0.0835 1.09972,-0.17023 1.12232,-0.19284 0.0226,-0.0226 -3.29084,-3.31186 -7.36321,-7.30946 -4.07237,-3.99761 -8.50608,-8.35414 -9.85269,-9.68119 l -2.44838,-2.41282 1.27551,-0.004 1.27551,-0.004 2.87645,2.89482 c 6.85789,6.90167 12.84637,13.25947 15.03419,15.96136 0.83283,1.02852 1.07693,1.40515 0.95827,1.47849 -0.33357,0.20616 -3.58245,0.58147 -6.91926,0.79932 -1.54421,0.10081 -2.82014,0.15672 -9.87958,0.43293 -8.02262,0.31388 -11.06417,0.8049 -13.96951,2.25516 -5.40083,2.69596 -10.85044,9.46129 -12.00255,14.9004 -0.0942,0.44455 -0.15806,1.3244 -0.15917,2.19172 l -0.002,1.449 2.1512,0.0652 c 1.18316,0.0359 5.4736,0.11383 9.53432,0.17329 16.22315,0.23755 25.25612,0.49767 29.63873,0.85349 1.77005,0.14371 1.7422,0.13352 1.52522,0.55835 -0.6064,1.18728 -3.37862,4.4158 -8.22648,9.58055 -8.85839,9.43744 -10.64462,12.14905 -11.30594,17.16306 -0.22444,1.70173 -0.40691,5.88554 -0.32572,7.46836 0.0916,1.78584 0.29741,2.92771 0.79717,4.42303 0.83636,2.50244 2.55667,5.84625 3.61662,7.02967 0.61146,0.6827 0.71417,0.66675 1.86473,-0.28952 3.29957,-2.74237 8.84417,-8.05584 22.75128,-21.80286 7.91977,-7.82861 7.98841,-7.89302 8.04121,-7.54445 0.0293,0.19335 0.15351,2.86129 0.27606,5.92874 0.48049,12.02688 0.78254,16.54263 1.38619,20.72412 0.28771,1.99297 0.54474,2.91918 1.11825,4.0296 2.47921,4.8002 8.50036,10.34952 13.53555,12.47485 1.32819,0.56063 3.59212,1.20859 4.54305,1.30028 l 0.66316,0.0639 0.21963,-0.49651 c 1.1175,-2.52629 1.5817,-12.66207 1.58597,-34.62936 l 0.002,-9.8652 0.71707,0.67003 c 0.39439,0.36852 2.98228,2.83943 5.75087,5.49093 10.07703,9.65083 12.65807,11.82751 16.00013,13.49347 2.57275,1.28247 5.04254,1.72256 9.66711,1.72256 3.56253,0 5.7937,-0.27642 7.77495,-0.96325 1.93587,-0.67109 6.64501,-3.16127 7.40084,-3.91355 l 0.3033,-0.30187 -0.73828,-0.83665 c -1.2988,-1.47185 -6.17137,-6.48308 -13.36847,-13.74892 -8.67177,-8.75459 -12.62612,-12.87684 -15.03086,-15.66904 -0.91269,-1.05975 -1.26707,-1.52198 -1.26707,-1.65272 0,-0.33989 4.00686,-0.69266 11.9511,-1.05218 17.43434,-0.78901 19.34527,-1.27651 24.3222,-6.20488 1.87058,-1.85233 3.26732,-3.64888 4.35214,-5.59793 l 0.37768,-0.67856 10e-4,1.43999 0.001,1.44 -0.73383,1.08177 c -2.11156,3.11271 -3.79375,4.84308 -6.41283,6.59651 -3.84967,2.57729 -7.78554,3.29445 -18.13656,3.30471 -5.61152,0.006 -11.64144,0.24249 -12.4557,0.4894 -0.10225,0.031 -0.18591,0.10065 -0.18591,0.15477 0,0.3152 3.58513,4.11429 13.1766,13.96303 6.53985,6.71526 7.54613,7.7681 10.20417,10.67631 2.51057,2.74686 4.21727,4.73815 4.84384,5.65152 0.47146,0.68726 0.48333,0.72357 0.34539,1.05656 -0.0786,0.18967 -0.45178,0.67234 -0.82937,1.07261 -2.34416,2.48494 -8.11973,4.81311 -13.93047,5.61548 -1.54069,0.21274 -4.20806,0.16578 -5.78964,-0.10194 -5.72549,-0.96915 -9.40426,-2.99718 -16.04104,-8.8431 -0.6427,-0.56611 -3.20024,-2.89376 -5.68341,-5.17255 l -4.51486,-4.14326 -0.0657,1.4497 c -0.0361,0.79733 -0.12777,5.94331 -0.20364,11.4355 -0.19485,14.10479 -0.0324,16.81269 1.03451,17.24769 1.61082,0.65675 7.81638,0.528 15.11652,-0.31362 6.71464,-0.77413 11.54254,-1.76096 16.30661,-3.33312 10.12074,-3.33989 20.9857,-9.33904 23.48442,-12.96708 0.21999,-0.31941 0.41593,-0.58075 0.43544,-0.58075 0.0195,0 0.0355,0.63934 0.0355,1.42076 v 1.42077 l -1.12919,1.58029 c -3.90743,5.46848 -8.5201,10.49596 -13.69018,14.92132 -1.66432,1.42459 -3.1869,2.55248 -5.47095,4.05277 -8.74686,5.74539 -21.58046,11.85558 -28.73575,13.68134 -6.12735,1.56346 -18.76918,2.45215 -28.56834,2.00829 z m -4.82294,-29.53331 c 0.11015,-0.72011 0.0986,-8.47405 -0.018,-12.04869 -0.20345,-6.23898 -0.42464,-9.26771 -0.70883,-9.70622 -0.13769,-0.21246 -0.22615,-0.24312 -0.56893,-0.19714 -1.14581,0.15369 -3.00054,1.90519 -11.53264,10.89077 -1.51429,1.59478 -2.76321,2.9333 -2.77538,2.9745 -0.0206,0.0696 1.20796,0.77661 9.1504,5.26635 3.51483,1.98688 6.12668,3.37004 6.27537,3.32325 0.0584,-0.0184 0.13854,-0.24465 0.17803,-0.50282 z m -29.43446,-30.77314 c 6.4094,-6.46928 11.44267,-11.81234 11.45883,-12.1641 0.002,-0.0447 -1.13162,-0.0551 -2.51927,-0.0232 -1.38766,0.0319 -5.29567,0.1057 -8.68447,0.16395 -8.91451,0.15324 -12.65028,0.35554 -13.03755,0.70601 -0.30881,0.27948 -0.22136,0.77932 0.33561,1.91828 1.68784,3.45144 7.854,13.51664 8.2806,13.51664 0.0477,0 1.92256,-1.8529 4.16625,-4.11755 z"
       id="path80546" />
    <path
       style="fill:#deddff;fill-opacity:1;stroke-width:0.106232"
       d="m 354.8149,251.7615 c -5.31524,-0.13434 -9.2066,-0.39386 -9.44419,-0.62984 -0.13201,-0.13113 0.40284,-0.98101 1.51763,-2.41145 1.63162,-2.09361 3.26499,-3.95884 7.56764,-8.64181 7.22653,-7.86529 9.56612,-11.39967 10.40266,-15.71511 0.26952,-1.39037 0.45461,-4.15927 0.36935,-5.52536 -0.39656,-6.35382 -3.42158,-14.13526 -5.31073,-13.66111 -1.00729,0.25281 -4.01965,2.90934 -12.11147,10.6808 -3.4635,3.32638 -6.04246,5.83619 -16.19924,15.76489 -3.15168,3.0809 -3.24548,3.16203 -3.31617,2.86826 -0.04,-0.16627 -0.19839,-3.19448 -0.35197,-6.72935 -0.56906,-13.09816 -1.15845,-19.86751 -1.93104,-22.17855 -1.92066,-5.74524 -9.1446,-12.12692 -16.51815,-14.59224 -1.13276,-0.37874 -4.5303,-1.2094 -4.61209,-1.12761 -0.019,0.019 -0.13312,9.83272 -0.25353,21.8082 -0.12042,11.97549 -0.23019,22.04709 -0.24393,22.38134 l -0.025,0.60773 -4.51486,-4.26319 c -2.48317,-2.34475 -5.3767,-5.05625 -6.43007,-6.02556 -10.01409,-9.21492 -14.17281,-11.14052 -22.73061,-10.52489 -3.51886,0.25314 -5.69946,0.75266 -7.75494,1.77647 -0.97923,0.48775 -5.78964,3.32343 -5.78964,3.41293 0,0.0383 0.88761,0.95351 1.97247,2.03383 1.08486,1.08032 3.64818,3.67322 5.69627,5.76201 l 3.72379,3.79779 h -1.29316 -1.29317 l -2.62371,-2.53033 c -4.01644,-3.87347 -6.63414,-6.30318 -7.16716,-6.65243 -0.35762,-0.23432 -0.67248,-0.081 -0.88674,0.4318 -0.29566,0.70759 -0.94999,4.47192 -1.20722,6.94502 -0.20048,1.92748 -0.15448,1.80594 -0.68351,1.80594 h -0.45932 l 0.25758,-1.46069 c 1.51537,-8.59338 4.05679,-16.44984 7.89515,-24.4068 2.26674,-4.69897 3.28826,-7.27689 2.88352,-7.27689 -0.3697,0 -2.92653,2.38084 -5.55201,5.16983 -6.27522,6.66607 -11.58939,13.00556 -13.43177,16.02333 -1.69648,2.77878 -4.04919,7.35942 -5.34722,10.41086 l -0.63265,1.48725 -0.64698,0.0316 -0.64698,0.0317 0.17647,-0.45658 c 0.98891,-2.55864 3.69701,-8.06394 5.39797,-10.97356 4.67445,-7.99601 10.72814,-15.11927 17.99408,-21.17332 7.0158,-5.84561 15.79455,-10.94577 25.7481,-14.95879 9.68797,-3.90594 17.36533,-5.1765 30.2004,-4.99801 4.47057,0.0622 7.0237,0.2095 10.42659,0.60169 14.27096,1.64474 26.28586,6.41681 37.59027,14.93007 3.80651,2.86665 6.57241,5.29428 10.52467,9.23751 3.92438,3.91541 6.70954,7.0421 9.24499,10.37866 l 1.10493,1.45406 -0.006,1.46732 c -0.005,1.17478 -0.0315,1.42859 -0.13279,1.273 -3.91738,-6.01592 -6.81899,-9.6839 -10.85595,-13.72325 -7.33699,-7.34131 -15.3557,-12.57715 -27.77967,-18.13881 -7.06907,-3.1645 -12.29724,-4.53976 -19.46989,-5.12149 -4.72749,-0.38342 -16.99163,-0.47091 -22.43864,-0.16007 -4.24798,0.24241 -7.35174,0.81564 -11.57928,2.13857 -8.29581,2.59601 -21.09766,8.81127 -24.88854,12.08331 -1.08503,0.93654 -2.25894,2.66482 -4.66128,6.86258 -3.85574,6.73736 -7.30453,13.9953 -7.0122,14.7571 0.16328,0.4255 1.24882,0.0691 4.00191,-1.31402 3.99194,-2.00546 6.5952,-2.71583 10.41073,-2.84083 4.76552,-0.15613 9.57437,0.93338 13.06654,2.96039 3.27276,1.89966 5.74183,3.9738 13.2686,11.14627 2.47745,2.36083 4.66451,4.42736 4.86011,4.59229 l 0.35566,0.29988 V 209.49522 188.0266 l 0.23902,0.0528 c 0.13146,0.029 1.1234,0.19524 2.20431,0.36938 2.25634,0.36352 3.51268,0.67143 5.15754,1.26405 6.03929,2.17587 11.46118,6.01706 14.13142,10.01155 1.80655,2.70247 2.88839,6.18815 3.49238,11.25241 0.38729,3.24736 0.56147,5.76446 0.97034,14.02263 0.15765,3.1843 0.30456,5.8103 0.32647,5.83555 0.0219,0.0252 4.78366,-4.68473 10.58169,-10.46663 11.39839,-11.36667 16.45449,-16.29869 18.50193,-18.04787 0.68847,-0.58817 0.83054,-0.57648 1.68723,0.13887 1.52072,1.26982 3.70634,4.50519 4.74426,7.02293 1.99732,4.845 2.10444,14.21389 0.21844,19.10446 -0.99789,2.58761 -4.66377,7.29829 -12.91027,16.58971 -2.39553,2.69908 -4.37144,4.95214 -4.39092,5.0068 -0.0219,0.0615 7.2045,0.0994 18.93586,0.0994 h 18.97126 v 0.79674 0.79674 l -14.04918,-0.017 c -7.72705,-0.009 -15.48332,-0.0533 -17.23614,-0.0976 z"
       id="path91659" />
    <path
       style="fill:#deddff;fill-opacity:1;stroke-width:0.150235"
       d="m 312.78873,283.78335 c -5.90442,-0.80501 -10.55049,-3.84557 -14.21151,-9.30056 -1.66141,-2.47551 -2.50056,-4.40106 -3.08915,-7.08846 -0.39477,-1.80244 -0.39676,-7.30368 -0.003,-9.14081 0.67153,-3.13553 1.65155,-5.25445 3.7943,-8.2037 4.1371,-5.69424 9.17317,-8.179 16.55709,-8.16913 5.47486,0.007 10.08516,1.52345 14.11635,4.6423 3.61425,2.79627 6.07254,6.55645 7.27618,11.12959 0.39049,1.48362 0.46519,2.0779 0.52876,4.20658 0.1924,6.44185 -1.57863,10.82618 -6.25186,15.47701 -4.68165,4.65921 -8.70242,6.38072 -15.26145,6.53429 -1.32206,0.031 -2.87699,-0.008 -3.4554,-0.0871 z m 7.73709,-1.84699 c 6.40939,-1.49446 10.17188,-4.62955 13.5148,-11.26119 1.64172,-3.25682 2.25985,-5.30922 2.25985,-7.50347 0,-5.48744 -3.11936,-11.99382 -7.51824,-15.68159 -3.21413,-2.69454 -6.89528,-4.04321 -11.48646,-4.20831 -6.95364,-0.25005 -12.74478,2.48764 -17.03157,8.05148 -2.45673,3.1886 -3.17597,5.74304 -3.17411,11.27311 0.002,6.17551 1.44047,10.33641 4.79347,13.86625 2.60865,2.74623 7.15402,5.10053 11.09282,5.74559 1.97379,0.32324 5.52249,0.19075 7.54944,-0.28187 z"
       id="path91698" />
    <path
       style="fill:#deddff;fill-opacity:1;stroke-width:0.150235"
       d="m 386.18309,262.22381 c -0.004,-1.22062 0.0437,-1.46284 0.45791,-2.31802 1.07842,-2.22628 1.61425,-4.62548 1.63563,-7.32363 l 0.005,-0.6385 h -1.05164 -1.05165 v -0.82629 -0.82629 h 2.30817 2.30817 l -0.43093,2.49949 c -0.23701,1.37471 -0.67033,3.21697 -0.96294,4.09389 -0.51808,1.55268 -2.06891,4.8925 -2.83319,6.10146 l -0.3799,0.60093 z"
       id="path91737" />
    <path
       style="fill:#deddff;fill-opacity:1;stroke-width:0.150235"
       d="m 386.18318,309.42339 -0.005,-1.33718 1.19277,-1.98594 c 2.84957,-4.74454 6.65505,-12.79599 8.3383,-17.64173 1.81755,-5.23239 2.86352,-12.39265 3.26399,-22.34385 0.42139,-10.47118 -0.52693,-20.91536 -2.4053,-26.49028 -1.78451,-5.29632 -6.25074,-14.91287 -9.3497,-20.13145 l -1.11517,-1.87794 0.0751,-1.35211 0.0751,-1.35211 1.60048,2.40375 c 2.01456,3.02566 2.97219,4.69434 4.69949,8.1889 1.6566,3.35152 3.49477,7.92272 4.98358,12.39326 2.54377,7.63834 2.89316,10.05618 3.01847,20.88809 0.22272,19.25271 -1.24935,26.87176 -7.83891,40.57204 -1.41341,2.93861 -3.20645,6.20599 -4.89769,8.92485 -1.73998,2.79722 -1.63012,2.72053 -1.63576,1.1417 z"
       id="path91776" />
    <path
       style="fill:#179c5f;fill-opacity:1;stroke-width:0.0375587"
       d="m 91.380282,204.75215 c -3.149561,-0.33054 -6.042926,-1.58388 -8.619718,-3.73387 -2.60458,-2.17317 -4.379541,-5.09163 -5.035385,-8.27936 -0.220383,-1.07117 -0.275968,-1.65864 -0.276027,-2.91732 -4.7e-5,-0.97445 0.01245,-1.2381 0.08364,-1.76526 0.403847,-2.99025 1.533815,-5.57787 3.419655,-7.83099 0.44169,-0.52771 1.400784,-1.4629 1.95835,-1.90954 2.832054,-2.26862 6.222767,-3.40273 10.179045,-3.40464 2.765513,-0.001 4.324523,0.39063 5.989969,1.50599 1.029479,0.68945 1.861649,1.42078 3.625539,3.18621 1.71236,1.71386 2.44542,2.55301 3.13535,3.58912 0.88814,1.33376 1.26129,2.38576 1.45214,4.0939 0.0627,0.56131 0.063,2.47881 5e-4,3.00469 -0.36778,3.09291 -1.69703,6.31185 -3.69682,8.95233 -2.47998,3.27451 -5.213874,4.92589 -9.061309,5.47341 -0.579504,0.0825 -2.500793,0.10398 -3.154929,0.0353 z m 1.896714,-0.0579 c 1.645706,-0.0927 2.907005,-0.31943 3.985624,-0.71633 3.33041,-1.22549 6.24066,-4.04289 8.12448,-7.86526 0.83387,-1.69198 1.55481,-3.89983 1.75377,-5.3709 0.0567,-0.41945 0.0551,-2.36437 -0.003,-3.43662 -0.0702,-1.29772 -0.16367,-1.7169 -0.59025,-2.64572 -0.68264,-1.48632 -1.24998,-2.19211 -3.88113,-4.82828 -2.60023,-2.60518 -3.405431,-3.28684 -4.600942,-3.895 -0.862194,-0.43861 -1.442394,-0.64155 -2.065728,-0.72255 -0.94474,-0.12278 -3.929289,-0.17386 -4.901408,-0.0839 -1.876039,0.17362 -3.262043,0.57069 -5.260955,1.50717 -1.719931,0.80578 -2.466066,1.34184 -3.904989,2.80555 -2.247778,2.28649 -3.511386,4.54945 -4.054886,7.2618 -0.377138,1.88211 -0.39767,4.28053 -0.05188,6.06008 0.293327,1.50956 1.045464,3.27248 2.061508,4.83193 2.135027,3.27691 5.732126,5.78855 9.678644,6.75802 1.407937,0.34586 2.245401,0.42259 3.71096,0.34001 z"
       id="path95011" />
    <path
       style="fill:#179c5f;fill-opacity:1;stroke-width:0.0375587"
       d=""
       id="path95050" />
    <path
       style="fill:#179c5f;fill-opacity:1;stroke-width:0.0066395"
       d="m 160.71685,230.05039 c -0.002,-1.70627 -0.004,-3.79025 -0.004,-4.63105 l -1e-5,-1.52875 h 0.0524 0.0524 l 0.004,0.16765 c 0.002,0.0922 0.007,1.62717 0.0106,3.41104 0.004,1.78387 0.008,3.7924 0.0106,4.4634 l 0.004,1.22001 h -0.0625 -0.0625 z"
       id="path95323" />
    <path
       style="fill:#179c5f;fill-opacity:1;stroke-width:0.424928"
       d="m 88.531281,203.79817 c -4.324866,-1.54489 -7.762596,-4.64101 -9.593474,-8.64017 -0.937895,-2.04863 -1.042643,-2.75742 -0.886716,-5.99999 0.213316,-4.43599 1.497916,-7.18344 4.70824,-10.0698 2.871871,-2.58206 5.806575,-3.59333 10.422077,-3.59135 4.432833,0.002 5.066899,0.31614 9.334132,4.6259 3.90736,3.94631 4.48226,5.19934 4.28392,9.3371 -0.27871,5.81442 -3.63612,11.19381 -8.504748,13.62669 -2.141471,1.07011 -3.111174,1.30048 -5.409578,1.28518 -1.540217,-0.0103 -3.499451,-0.26836 -4.353853,-0.57356 z"
       id="path102161" />
    <path
       style="fill:#179c5f;fill-opacity:1;stroke-width:0.424928"
       d="m 87.322708,349.3783 c -6.290277,-3.0895 -9.456398,-7.76265 -9.449742,-13.94769 0.0061,-5.67366 3.354974,-10.64464 8.932152,-13.25866 6.447072,-3.02174 14.778882,0.0596 18.368032,6.79295 1.95025,3.65873 2.25998,8.21368 0.81848,12.0367 -1.38558,3.67471 -4.69503,6.85961 -8.97227,8.63459 -4.186851,1.73747 -5.716941,1.69677 -9.696652,-0.25789 z"
       id="path102200" />
    <path
       style="fill:#179c5f;fill-opacity:1;stroke-width:0.424928"
       d="m 132.29411,317.50996 c -2.2265,-0.27185 -3.20832,-1.75534 -3.60537,-5.44755 -0.51448,-4.78431 -0.30575,-85.21789 0.24193,-93.22448 0.47007,-6.87206 0.93258,-9.33545 1.94232,-10.3452 0.88945,-0.88944 3.37585,-1.22547 5.27794,-0.71329 1.42596,0.38397 1.77378,0.71698 2.34892,2.24894 1.39587,3.7181 1.58777,9.25972 1.80596,52.15221 0.22207,43.65664 0.051,50.39346 -1.33356,52.50653 -1.27872,1.95156 -4.08808,3.13907 -6.67814,2.82284 z"
       id="path102239" />
    <path
       style="fill:#179c5f;fill-opacity:1;stroke-width:0.424928"
       d="m 151.46698,336.22429 c -1.24661,-1.17774 -1.81357,-2.14779 -2.17307,-3.71812 -0.35113,-1.53373 -0.52839,-21.38794 -0.63736,-71.3879 l -0.15095,-69.26327 3.0202,-2.23087 c 1.681,-1.24167 3.47525,-2.23087 4.04643,-2.23087 0.57013,0 1.68569,0.61377 2.51005,1.38101 1.41564,1.31755 1.50187,1.56653 1.87632,5.41783 1.14677,11.79469 0.8178,136.4094 -0.3704,140.30558 -0.58197,1.90833 -2.65482,3.32009 -4.87478,3.32009 -1.21927,0 -1.92798,-0.34786 -3.24644,-1.59348 z"
       id="path102278" />
    <path
       style="fill:#179c5f;fill-opacity:1;stroke-width:0.424928"
       d="m 173.01212,337.33653 c -1.316,-0.76498 -1.98293,-3.13353 -2.41096,-8.56242 -1.1322,-14.36027 -0.76357,-131.91852 0.42868,-136.70665 0.5382,-2.16142 2.68709,-4.66791 4.01763,-4.6862 0.48,-0.007 2.06623,0.61486 3.52495,1.38102 l 2.65221,1.39301 0.004,26.558 c 0.002,14.6069 0.12423,47.30511 0.27142,72.66269 l 0.26762,46.10469 -2.79624,1.16855 c -2.95854,1.23638 -4.67413,1.43425 -5.95911,0.68731 z"
       id="path102317" />
    <path
       style="fill:#179c5f;fill-opacity:1;stroke-width:0.424928"
       d="m 194.29146,317.24403 c -1.11391,-0.29962 -2.13608,-0.65556 -2.27149,-0.79097 -0.75932,-0.75932 -1.07303,-12.10862 -1.28871,-46.62377 -0.23916,-38.27193 0.13032,-58.05863 1.11862,-59.90528 0.78097,-1.45925 2.41721,-2.23227 4.72503,-2.23227 2.67317,0 4.18545,1.00668 4.99588,3.32561 1.34793,3.85693 1.39022,99.36102 0.0461,103.99449 -0.36095,1.24423 -0.81218,1.76951 -1.91637,2.23087 -1.72844,0.72219 -2.72814,0.72243 -5.40901,0.001 z"
       id="path102356" />
    <path
       style="fill:#179c5f;fill-opacity:1;stroke-width:0.424928"
       d="m 432.1518,203.82217 c -3.16728,-1.05574 -5.17478,-2.34988 -7.36841,-4.75006 -1.71372,-1.87509 -2.38377,-3.04078 -3.09632,-5.38669 -2.63038,-8.65994 2.1919,-16.46777 11.19925,-18.13286 7.9158,-1.46332 16.02584,4.27142 17.55302,12.41204 0.55851,2.97711 -1.53371,8.87052 -4.29392,12.09521 -2.90013,3.38814 -9.66209,5.20618 -13.99362,3.76236 z"
       id="path102395" />
    <path
       style="fill:#179c5f;fill-opacity:1;stroke-width:0.424928"
       d="m 431.63595,349.52422 c -4.18048,-1.3065 -7.91793,-4.47388 -9.49455,-8.04636 -3.49375,-7.91653 1.13799,-17.16401 9.95389,-19.8734 2.55389,-0.78489 3.19312,-0.83522 5.12304,-0.40332 11.83349,2.64822 16.74813,13.49729 10.36291,22.87615 -3.38487,4.97183 -10.11222,7.2699 -15.94529,5.44693 z"
       id="path102434" />
  </g>
</svg>
